<svg xmlns="http://www.w3.org/2000/svg" viewBox="0 0 920 240" font-family="Segoe UI, Arial">
<rect width="920" height="240" fill="#0A0E0A"/>
<text x="24" y="34" fill="#76B900" font-size="18" font-weight="bold">TheOrc — Architecture</text>
<g font-size="13">
<rect x="24" y="64" width="150" height="64" rx="8" fill="#10140F" stroke="#2E5A1E"/>
<text x="99" y="92" fill="#D4D4D4" text-anchor="middle">WPF Shell</text>
<text x="99" y="110" fill="#7A8A6A" text-anchor="middle" font-size="11">panels + status bar</text>
<rect x="214" y="64" width="160" height="64" rx="8" fill="#10140F" stroke="#2E5A1E"/>
<text x="294" y="92" fill="#D4D4D4" text-anchor="middle">AgentLoop</text>
<text x="294" y="110" fill="#7A8A6A" text-anchor="middle" font-size="11">plan / execute / tools</text>
<rect x="414" y="40" width="190" height="44" rx="8" fill="#0E1A0A" stroke="#4E7A2E"/>
<text x="509" y="68" fill="#A8CC80" text-anchor="middle">GOBLIN MIND</text>
<rect x="414" y="108" width="190" height="44" rx="8" fill="#0E1A0A" stroke="#4E7A2E"/>
<text x="509" y="136" fill="#A8CC80" text-anchor="middle">SwarmSession</text>
<rect x="644" y="40" width="120" height="40" rx="6" fill="#10140F" stroke="#2E5A1E"/>
<text x="704" y="64" fill="#D4D4D4" text-anchor="middle" font-size="12">RESEARCHER</text>
<rect x="644" y="86" width="120" height="40" rx="6" fill="#10140F" stroke="#2E5A1E"/>
<text x="704" y="110" fill="#D4D4D4" text-anchor="middle" font-size="12">CODER / UIDEV</text>
<rect x="644" y="132" width="120" height="40" rx="6" fill="#10140F" stroke="#2E5A1E"/>
<text x="704" y="156" fill="#D4D4D4" text-anchor="middle" font-size="12">TESTER</text>
<rect x="794" y="64" width="100" height="64" rx="8" fill="#10140F" stroke="#2E5A1E"/>
<text x="844" y="92" fill="#D4D4D4" text-anchor="middle" font-size="12">Local</text>
<text x="844" y="110" fill="#7A8A6A" text-anchor="middle" font-size="11">Ollama</text>
<g stroke="#4E7A2E" stroke-width="2" fill="none"><path d="M174 96 H214"/><path d="M374 96 H414"/><path d="M604 62 H644"/><path d="M604 130 H644"/><path d="M764 96 H794"/></g>
</g>
<text x="24" y="214" fill="#7A8A6A" font-size="12">A goal enters the shell, AgentLoop plans it, GOBLIN MIND routes by capability, the swarm executes on local models.</text>
</svg>
